<svg xmlns="http://www.w3.org/2000/svg" viewBox="0 0 96 96" role="img" aria-label="Tech Story">
  <rect x="8" y="8" width="80" height="80" rx="20" fill="#0b151b"/>
  <g fill="none" stroke="#30d5c8" stroke-width="6" stroke-linecap="round">
    <path d="M34 20H27a7 7 0 0 0-7 7v7"/>
    <path d="M62 20h7a7 7 0 0 1 7 7v7"/>
    <path d="M20 62v7a7 7 0 0 0 7 7h7"/>
    <path d="M76 62v7a7 7 0 0 1-7 7h-7"/>
  </g>
  <path d="M28 59c9-18 19-18 27-7 5 7 9 4 13-12" fill="none" stroke="#f7fbff" stroke-width="6" stroke-linecap="round"/>
  <circle cx="28" cy="59" r="5" fill="#30d5c8"/>
  <circle cx="68" cy="40" r="10" fill="#0b151b" stroke="#30d5c8" stroke-width="5"/>
  <circle cx="68" cy="40" r="3.5" fill="#f7fbff"/>
</svg>
